<svg height="60" viewBox="0 0 64 64" width="60" xmlns="http://www.w3.org/2000/svg"><g id="Web"><path d="m58 6h-52a6.0066 6.0066 0 0 0 -6 6v42a6.0066 6.0066 0 0 0 6 6h52a6.0066 6.0066 0 0 0 6-6v-42a6.0066 6.0066 0 0 0 -6-6zm-56 6a4.0042 4.0042 0 0 1 4-4h52a4.0042 4.0042 0 0 1 4 4v6h-60zm56 46h-52a4.0042 4.0042 0 0 1 -4-4v-34h60v34a4.0042 4.0042 0 0 1 -4 4z"/><path d="m40 33h-3v-2a5 5 0 0 0 -10 0v2h-3a2.0023 2.0023 0 0 0 -2 2v12a5.0059 5.0059 0 0 0 5 5h10a5.0059 5.0059 0 0 0 5-5v-12a2.0023 2.0023 0 0 0 -2-2zm-11-2a3 3 0 0 1 6 0v2h-6zm11 16a3.0033 3.0033 0 0 1 -3 3h-10a3.0033 3.0033 0 0 1 -3-3v-12h16z"/><circle cx="28" cy="38" r="1"/><circle cx="36" cy="38" r="1"/><path d="m12.707 35.293a.9994.9994 0 0 0 -1.414 0l-3 3a.9994.9994 0 0 0 0 1.414l3 3a1 1 0 0 0 1.414-1.414l-2.2929-2.293 2.2929-2.293a.9994.9994 0 0 0 0-1.414z"/><path d="m52.707 35.293a1 1 0 0 0 -1.414 1.414l2.2929 2.293-2.2929 2.293a1 1 0 0 0 1.414 1.414l3-3a.9994.9994 0 0 0 0-1.414z"/><path d="m7 10a3 3 0 1 0 3 3 3.0033 3.0033 0 0 0 -3-3zm0 4a1 1 0 1 1 1-1 1.0009 1.0009 0 0 1 -1 1z"/><path d="m14 10a3 3 0 1 0 3 3 3.0033 3.0033 0 0 0 -3-3zm0 4a1 1 0 1 1 1-1 1.0009 1.0009 0 0 1 -1 1z"/><path d="m21 10a3 3 0 1 0 3 3 3.0033 3.0033 0 0 0 -3-3zm0 4a1 1 0 1 1 1-1 1.0009 1.0009 0 0 1 -1 1z"/><path d="m58 12h-18a1 1 0 0 0 0 2h18a1 1 0 0 0 0-2z"/></g></svg>