<?xml version="1.0"?>
<svg xmlns="http://www.w3.org/2000/svg" viewBox="0 0 64 64" width="60" height="60"><g id="Electric_Plug-2" data-name="Electric Plug"><path d="M42.38,29H32a1,1,0,0,1-1-1V16.24L21.62,35H32a1,1,0,0,1,1,1V47.76Z"/><path d="M4,32A28.031,28.031,0,0,1,32,4,27.7,27.7,0,0,1,42.43,6.01c.06.03.13.05.19.08l.19-.46.57-1.4A30.025,30.025,0,0,0,2,32,29.7,29.7,0,0,0,6.98,48.56a3.653,3.653,0,0,1,.27-.3,5.457,5.457,0,0,1,1.29-.97A27.655,27.655,0,0,1,4,32Z"/><path d="M57.02,15.44a3.653,3.653,0,0,1-.27.3,5.457,5.457,0,0,1-1.29.97A27.679,27.679,0,0,1,60,32,28.031,28.031,0,0,1,32,60a27.657,27.657,0,0,1-10.43-2.01,1.458,1.458,0,0,1-.19-.07l-.18.44-.58,1.41A30.025,30.025,0,0,0,62,32,29.7,29.7,0,0,0,57.02,15.44Z"/><path d="M17.151,52.506l-2.829-2.828a4,4,0,0,0-5.657,5.657l2.829,2.828.707-.707,3.535,3.535,1.414-1.414-3.535-3.535,1.414-1.414,3.536,3.535,1.414-1.414-3.536-3.536Z"/><path d="M46.849,11.494l2.829,2.828a4,4,0,1,0,5.657-5.657L52.506,5.837l-.707.707L48.264,3.009,46.85,4.423l3.535,3.535L48.971,9.372,45.435,5.837,44.021,7.251l3.536,3.536Z"/></g></svg>
