<svg height="25" viewBox="0 0 48 48" width="25" xmlns="http://www.w3.org/2000/svg"><g id="27-approved,-check,-square,-success,-tick" fill="none" fill-rule="evenodd"><path id="Shape" d="m37 6c2.6887547 0 5 2.16763914 5 5v26c0 2.6887547-2.164482 5-5 5h-26c-2.6887547 0-5-2.1751558-5-5v-26c0-2.6887547 2.15050562-5 5-5zm-26 2c-1.59768088 0-3 1.28445465-3 3v26c0 1.5976809 1.27076962 3 3 3h26c1.5976809 0 3-1.3116263 3-3v-26c0-1.59768088-1.3169127-3-3-3zm22.363961 9.636039c.360484.3604839.4206836.990127 0 1.4142135l-11.3137085 11.3137085c-.3693977.3693977-1.0020237.4435137-1.4384167-.0250614l-4.3431457-4.6568543c-.3766832-.4038913-.3546267-1.036672.0492646-1.4133552.3728227-.3477076 1.0030466-.401937 1.4133552.0492646l3.6366901 3.8990453 10.5817475-10.580961c.3905243-.3905243 1.0236892-.3905243 1.4142135 0z" fill="rgb(0,0,0)" fill-rule="nonzero"/></g></svg>