<svg xmlns="http://www.w3.org/2000/svg" width="278" height="80" viewBox="0 0 278 79"><style>
@keyframes a0_t { 0% { transform: translate(145.3px,79px); } 11.237% { transform: translate(142.3px,75px); } 15.026% { transform: translate(148.3px,74px); } 22.526% { transform: translate(149.3px,70px); } 30.053% { transform: translate(154.3px,70px); } 52.632% { transform: translate(151.4px,69px); } 60.132% { transform: translate(149.4px,69px); } 67.658% { transform: translate(155.4px,69px); } 71.395% { transform: translate(155.4px,73px); } 75.158% { transform: translate(156.4px,79.5px); } 100% { transform: translate(156.4px,79.5px); } }
@keyframes a1_t { 0% { transform: translate(10.5px,18.5px); } 22.526% { transform: translate(13.5px,17.5px); } 30.053% { transform: translate(16.5px,14.5px); } 100% { transform: translate(16.5px,14.5px); } }
@keyframes a2_t { 0% { transform: translate(27.5px,13.5px); } 22.526% { transform: translate(30.8px,14.5px); } 30.053% { transform: translate(32.8px,12.5px); } 45.079% { transform: translate(30.8px,12.5px); } 100% { transform: translate(30.8px,12.5px); } }
@keyframes a3_t { 0% { transform: translate(54.5px,10.5px); } 30.053% { transform: translate(58.2px,9px); } 45.079% { transform: translate(59.3px,12.5px); } 52.632% { transform: translate(59.5px,10px); } 100% { transform: translate(59.5px,10px); } }
@keyframes a4_t { 0% { transform: translate(82.5px,17.5px); } 30.053% { transform: translate(83.2px,17.5px); } 45.079% { transform: translate(83.4px,16.5px); } 100% { transform: translate(83.4px,16.5px); } }
@keyframes a5_t { 0% { transform: translate(70.5px,15.5px); } 22.526% { transform: translate(70.8px,17.5px); } 30.053% { transform: translate(70.8px,14.5px); } 45.079% { transform: translate(71.9px,14.5px); } 100% { transform: translate(71.9px,14.5px); } }
@keyframes a6_t { 0% { transform: translate(-41.5px,53px); } 7.5% { transform: translate(-18.7px,21px); } 15.026% { transform: translate(-7.7px,17px); } 22.526% { transform: translate(.3px,3px); } 30.053% { transform: translate(.3px,-0.5px); } 37.553% { transform: translate(5.8px,-0.5px); } 45.079% { transform: translate(2.3px,-2.5px); } 52.632% { transform: translate(7.3px,1.5px); } 60.132% { transform: translate(.3px,1.6px); } 67.658% { transform: translate(.3px,-0.5px); } 71.395% { transform: translate(5.8px,-0.5px); } 78.947% { transform: translate(54px,-57.4px); } 100% { transform: translate(54px,-57.4px); } }
@keyframes a7_o { 0% { opacity: 1; } 21.053% { opacity: 0; } 26.316% { opacity: 1; } 42.105% { opacity: 0; } 47.368% { opacity: 1; } 63.158% { opacity: 0; } 68.421% { opacity: 1; } 100% { opacity: 1; } }
</style><title>CTA RFQ Main</title><defs><filter id="filter-1"><feColorMatrix in="SourceGraphic" values="0 0 0 0 1.000000 0 0 0 0 1.000000 0 0 0 0 1.000000 0 0 0 1.000000 0"/></filter></defs><g fill="none" fill-rule="evenodd"><g transform="translate(-1522,-109)"><g transform="translate(1522,109)"><rect fill="#fd3a30" width="278" height="79"/><g transform="translate(191.8,93.5) translate(-46.5,-14.5)" style="animation: 3.8s linear infinite both a0_t;"><ellipse cx="46.5" cy="14.5" fill="#fff" opacity=".68" rx="10.5" ry="10.5"/><ellipse fill="#fff" opacity=".3" rx="10.5" ry="10.5" transform="translate(10.5,18.5)" style="animation: 3.8s linear infinite both a1_t;"/><ellipse fill="#fff" opacity=".9" rx="10.5" ry="10.5" transform="translate(27.5,13.5)" style="animation: 3.8s linear infinite both a2_t;"/><ellipse fill="#fff" rx="10.5" ry="10.5" transform="translate(54.5,10.5)" style="animation: 3.8s linear infinite both a3_t;"/><ellipse fill="#fff" opacity=".34" rx="10.5" ry="10.5" transform="translate(82.5,17.5)" style="animation: 3.8s linear infinite both a4_t;"/><ellipse fill="#fff" opacity=".9" rx="10.5" ry="10.5" transform="translate(70.5,15.5)" style="animation: 3.8s linear infinite both a5_t;"/></g><text font-family="Montserrat" font-size="18" fill="#fff">
                    <tspan x="42" y="47">Get an estimate</tspan>
                </text><g filter="url(#filter-1)" transform="translate(182.5,93) translate(-224,-40)" style="animation: 3.8s linear infinite both a6_t;"><g transform="translate(210,26)"><path d="M7.1 7.6l-2.4 .1c-0.7 .1-1.3 .5-1.7 1l-2.8 4.3c-0.2 .4-0.3 .9-0.1 1.4c.2 .5 .7 .8 1.2 .9l2.2 .3c.5-2.8 1.8-5.5 3.6-8Z" fill="#fff" fill-rule="nonzero"/><path d="M12.4 24.5l.3 2.2c.1 .5 .4 1 .9 1.2c.2 .1 .4 .1 .6 .1c.3 0 .6-0.1 .8-0.2l4.3-2.8c.5-0.4 .9-1 1-1.7l.1-2.4c-2.5 1.8-5.2 3.1-8 3.6Z" fill="#fff" fill-rule="nonzero"/><path d="M11.6 23c0 0 .1 0 .2-0.1c1.1-0.1 2.3-0.5 3.3-0.9l-9.1-9.1c-0.4 1-0.8 2.2-0.9 3.3c-0.1 .5 0 .9 .4 1.3l5 5c.3 .3 .7 .5 1.1 .5Z" fill="#fff" fill-rule="nonzero"/><path d="M25.8 12.4c2.2-4.3 2.3-8.9 2.2-11c-0.1-0.7-0.7-1.3-1.4-1.4c-0.3 0-0.8 0-1.2 0c-2.4 0-6.2 .4-9.8 2.2c-2.9 1.5-6.7 4.8-8.9 9.1c0 0 .1 0 .1 .1l9.8 9.8c.1 0 .1 .1 .1 .1c4.3-2.2 7.6-6 9.1-8.9Zm-9.5-6.5c1.6-1.6 4.2-1.6 5.8 0c.8 .8 1.2 1.8 1.2 2.9c0 1.1-0.4 2.1-1.2 2.9c-0.8 .8-1.9 1.2-2.9 1.2c-1.1 0-2.1-0.4-2.9-1.2c-0.8-0.8-1.2-1.8-1.2-2.9c0-1.1 .4-2.1 1.2-2.9Z" fill="#fff" fill-rule="nonzero"/><path d="M17.4 10.6c1 .9 2.6 .9 3.5 0c.5-0.5 .7-1.1 .7-1.8c0-0.6-0.2-1.3-0.7-1.7c-0.5-0.5-1.1-0.7-1.7-0.7c-0.6 0-1.3 .2-1.8 .7c-0.4 .4-0.7 1.1-0.7 1.7c0 .7 .3 1.3 .7 1.8Z" fill="#fff" fill-rule="nonzero" style="animation: 3.8s linear infinite both a7_o;"/><path d="M.8 23.1c.2 0 .5-0.1 .6-0.3l2.7-2.6c.3-0.4 .3-0.9 0-1.2c-0.3-0.3-0.8-0.3-1.2 0l-2.6 2.7c-0.4 .3-0.4 .8 0 1.1c.1 .2 .3 .3 .5 .3Z" fill="#fff" fill-rule="nonzero"/><path d="M6.5 21.5c-0.3-0.4-0.8-0.4-1.1 0l-5.2 5.1c-0.3 .3-0.3 .8 0 1.2c.2 .1 .4 .2 .6 .2c.2 0 .4-0.1 .6-0.2l5.1-5.2c.4-0.3 .4-0.8 0-1.1Z" fill="#fff" fill-rule="nonzero"/><path d="M7.8 23.9l-2.6 2.7c-0.4 .3-0.4 .8 0 1.1c.1 .2 .3 .3 .5 .3c.3 0 .5-0.1 .6-0.3l2.7-2.6c.3-0.4 .3-0.9 0-1.2c-0.3-0.3-0.8-0.3-1.2 0Z" fill="#fff" fill-rule="nonzero"/></g></g></g></g></g></svg>