<?xml version="1.0" encoding="iso-8859-1"?>
<!-- Generator: Adobe Illustrator 19.0.0, SVG Export Plug-In . SVG Version: 6.00 Build 0)  -->
<svg width="65" height="65" version="1.1" id="Capa_1" xmlns="http://www.w3.org/2000/svg" xmlns:xlink="http://www.w3.org/1999/xlink" x="0px" y="0px"
	 viewBox="0 0 512 512" style="enable-background:new 0 0 512 512;" xml:space="preserve">
<g>
	<g>
		<g>
			<path d="M227.956,281.716l-93.091-69.818c-1.968-1.529-4.374-2.385-6.865-2.444c-6.427,0-11.636,5.21-11.636,11.636
				c0.064,3.642,1.829,7.044,4.771,9.193l80.524,60.625l-80.64,60.509c-2.93,2.198-4.655,5.646-4.655,9.309
				c0,6.427,5.21,11.636,11.636,11.636c2.491-0.058,4.898-0.915,6.865-2.444l93.091-69.818c2.942-2.149,4.707-5.551,4.771-9.193
				C232.664,287.267,230.898,283.865,227.956,281.716z"/>
			<path d="M465.455,0H46.545C20.839,0,0,20.839,0,46.545v418.909C0,491.161,20.839,512,46.545,512h418.909
				C491.161,512,512,491.161,512,465.455V46.545C512,20.839,491.161,0,465.455,0z M488.727,465.455
				c0,12.853-10.42,23.273-23.273,23.273H46.545c-12.853,0-23.273-10.42-23.273-23.273V46.545c0-12.853,10.42-23.273,23.273-23.273
				h418.909c12.853,0,23.273,10.42,23.273,23.273V465.455z"/>
			<path d="M314.182,372.364h-69.818c-6.427,0-11.636,5.21-11.636,11.636s5.21,11.636,11.636,11.636h69.818
				c6.427,0,11.636-5.21,11.636-11.636S320.608,372.364,314.182,372.364z"/>
		</g>
	</g>
</g>
<g>
</g>
<g>
</g>
<g>
</g>
<g>
</g>
<g>
</g>
<g>
</g>
<g>
</g>
<g>
</g>
<g>
</g>
<g>
</g>
<g>
</g>
<g>
</g>
<g>
</g>
<g>
</g>
<g>
</g>
</svg>
