<svg height="100" viewBox="0 0 96 96" width="100" xmlns="http://www.w3.org/2000/svg"><g id="Layer_4"><g><path d="m27.535 69.395h-5.155c-3.638 0-7.869-2.974-7.869-6.81v-35.98h66.977v35.981c0 3.835-4.23 6.81-7.868 6.81h-5.155v3.721h5.155c5.471 0 11.589-4.504 11.589-10.531v-43.937c0-5.573-5.508-10.649-11.557-10.649h-51.272c-5.471 0-11.59 4.555-11.59 10.649v43.937c0 6.027 6.119 10.531 11.59 10.531h5.154c1.028 0 1.86-.832 1.86-1.86s-.831-1.862-1.859-1.862zm-13.023-50.746c0-3.496 3.898-6.928 7.869-6.928h51.272c4.028 0 7.836 3.367 7.836 6.928v4.235h-66.977z"/><path d="m55.442 15.442h-1.86c-1.027 0-1.86.832-1.86 1.86s.834 1.86 1.86 1.86h1.86c1.028 0 1.86-.832 1.86-1.86s-.832-1.86-1.86-1.86z"/><path d="m64.744 15.442h-1.86c-1.027 0-1.86.832-1.86 1.86s.834 1.86 1.86 1.86h1.86c1.028 0 1.86-.832 1.86-1.86s-.831-1.86-1.86-1.86z"/><path d="m74.047 15.442h-1.86c-1.027 0-1.86.832-1.86 1.86s.834 1.86 1.86 1.86h1.86c1.028 0 1.86-.832 1.86-1.86s-.832-1.86-1.86-1.86z"/><path d="m39.733 70.891-.658 3.246c-.15.739.038 1.499.516 2.082s1.183.918 1.937.918h13.824c.754 0 1.461-.336 1.939-.921s.664-1.346.512-2.086l-.667-3.248 3.277 2.458c.443.331.967.501 1.496.501.382 0 .766-.089 1.123-.269.852-.427 1.383-1.283 1.383-2.237v-10.492c0-.783-.373-1.53-1.001-2.002l-3.852-2.889c-.087-.065-.186-.102-.28-.154v-7.82c0-3.294-.998-6.461-2.887-9.161l-5.379-7.684c-1.176-1.681-3.976-1.677-5.152 0l-5.378 7.684c-1.89 2.7-2.887 5.867-2.887 9.161v7.82c-.094.053-.194.09-.283.156l-3.851 2.889c-.625.471-.998 1.217-.998 2v10.492c0 .954.529 1.81 1.382 2.237.357.18.74.267 1.123.267.53 0 1.055-.169 1.499-.501zm3.285 2.525.546-2.694h9.741l.553 2.694zm17.676-11.964v7.447l-1.412-1.059v-7.447zm-12.253-27.509 2.677 3.824h-5.355zm-7.12 14.035c0-2.317.672-4.538 1.895-6.49 0 0 10.44-.025 10.476.034 1.211 1.943 1.869 4.153 1.869 6.456v19.023h-14.24zm-5.132 13.474 1.412-1.059v7.447l-1.412 1.059z"/><path d="m46.14 82.419v3.721c0 1.028.834 1.86 1.86 1.86 1.028 0 1.86-.832 1.86-1.86v-3.721c0-1.028-.832-1.86-1.86-1.86-1.027-.001-1.86.831-1.86 1.86z"/><path d="m40.558 82.419v1.86c0 1.028.834 1.86 1.86 1.86 1.028 0 1.86-.832 1.86-1.86v-1.86c0-1.028-.832-1.86-1.86-1.86-1.026-.001-1.86.831-1.86 1.86z"/><path d="m53.581 80.558c-1.027 0-1.86.832-1.86 1.86v1.86c0 1.028.834 1.86 1.86 1.86 1.028 0 1.86-.832 1.86-1.86v-1.86c.001-1.028-.831-1.86-1.86-1.86z"/><path d="m48.274 57.01c3.219 0 5.839-2.62 5.839-5.841 0-3.219-2.62-5.839-5.839-5.839-3.221 0-5.841 2.62-5.841 5.839 0 3.221 2.62 5.841 5.841 5.841zm0-7.96c1.168 0 2.118.95 2.118 2.118s-.95 2.12-2.118 2.12c-1.169 0-2.12-.952-2.12-2.12s.951-2.118 2.12-2.118z"/></g></g></svg>