<svg id="Layer_1" enable-background="new 0 0 66 66" height="90" viewBox="0 0 66 66" width="90" xmlns="http://www.w3.org/2000/svg"><g><g><path d="m60.41 56.28h-.79v-31.77c0-2.03-1.65-3.67-3.67-3.67h-11.84c0-1.87-.31-3.71-.93-5.43-1.93-5.45-5.2-10-9.7-13.53-.07-.06-.16-.12-.23-.15-.33-.16-.73-.11-1.02.12-.01.01-.03.02-.04.03-4.49 3.53-7.75 8.07-9.7 13.52-.62 1.73-.92 3.58-.92 5.45h-11.51c-2.03 0-3.67 1.65-3.67 3.67v31.77h-.8c-.53 0-.96.43-.96.96v3.63c0 1.92 1.56 3.49 3.49 3.49h49.76c1.92 0 3.49-1.56 3.49-3.49v-3.63c0-.54-.43-.97-.96-.97zm-30.65-3.82c.32-.17.52-.49.52-.85v-3.33h5.64v2.99c0 .33.17.63.44.81.28.18.62.2.92.06.34-.15.72-.24 1.1-.24 1.4 0 2.57 1.05 2.71 2.45.03.33.23.61.53.76.29.14.64.13.93-.04.42-.25.9-.38 1.4-.38 1.09 0 2.04.65 2.47 1.59h-27.14c.43-.94 1.37-1.59 2.47-1.59.47 0 .93.12 1.34.35.28.15.62.16.91.01s.48-.43.51-.74c.16-1.37 1.32-2.4 2.71-2.4.56 0 1.09.17 1.54.49.29.2.68.23 1 .06zm27.94-27.95v31.77h-9.25c-.51-2.03-2.33-3.52-4.5-3.52-.42 0-.83.06-1.23.17-.68-1.75-2.37-2.95-4.33-2.95-.18 0-.36.01-.54.03v-1.74h.39c1.17 0 2.18-.88 2.35-2.03l.44-3.02c2.08 1.54 3.91 3.57 5.45 6.05.27.43.73.68 1.22.68.08 0 .17-.01.25-.02.59-.1 1.06-.55 1.18-1.13.64-2.96.54-6.16-.31-9.52-.01-.04-.02-.07-.03-.11-1.32-3.48-3.35-6.09-6.02-7.81l1.18-8.03c.03-.19.05-.38.07-.57h11.94c.95 0 1.74.79 1.74 1.75zm-15.25 8.98c1.95 1.48 3.47 3.59 4.52 6.32.65 2.61.81 5.11.48 7.45-1.74-2.54-3.79-4.61-6.11-6.16zm-9.61-29.66c2.05 1.68 3.8 3.61 5.25 5.75-3.46-.52-6.97-.53-10.49-.01.01-.01-.01-.01-.01-.01 1.47-2.14 3.22-4.05 5.25-5.73zm-8.53 12.21c.54-1.5 1.19-2.92 1.94-4.28 4.43-.87 8.85-.87 13.17 0 .75 1.36 1.41 2.78 1.94 4.29.79 2.2 1.02 4.62.67 7l-3.36 22.91c-.03.22-.23.39-.45.39h-10.76c-.23 0-.42-.16-.45-.39l-.66-4.52c0-.02 0-.03-.01-.05l-1.41-9.66-1.27-8.67c-.36-2.4-.13-4.82.65-7.02zm.04 25.06c-2.32 1.55-4.38 3.61-6.11 6.16-.33-2.34-.17-4.84.48-7.45 1.05-2.74 2.57-4.85 4.51-6.32zm-16.04-16.59c0-.97.78-1.75 1.75-1.75h11.63c.02.19.04.38.07.57l1.17 8.03c-2.66 1.7-4.69 4.32-6.02 7.81-.01.03-.02.07-.03.11-.85 3.35-.95 6.56-.31 9.52.13.59.59 1.03 1.18 1.13.08.01.17.02.25.02.49 0 .95-.25 1.22-.68 1.54-2.48 3.37-4.5 5.44-6.05l.44 3.01c.17 1.16 1.18 2.03 2.36 2.03h.9v1.85c-.37-.09-.75-.14-1.14-.14-1.95 0-3.64 1.2-4.32 2.93-.37-.09-.76-.14-1.15-.14-2.17 0-3.99 1.48-4.5 3.52h-8.94zm51.14 36.37c0 .86-.7 1.56-1.57 1.56h-49.76c-.86 0-1.56-.7-1.56-1.56v-2.67h52.89z"/><path d="m37.87 59.36h-9.75c-.53 0-.96.43-.96.96s.43.96.96.96h9.75c.53 0 .96-.43.96-.96s-.42-.96-.96-.96z"/><path d="m32.71 27.18c3.35 0 6.07-2.72 6.07-6.07s-2.72-6.07-6.07-6.07-6.07 2.72-6.07 6.07c-.01 3.34 2.72 6.07 6.07 6.07zm0-10.23c2.29 0 4.15 1.86 4.15 4.15s-1.86 4.15-4.15 4.15-4.15-1.86-4.15-4.15 1.86-4.15 4.15-4.15z"/><path d="m46.05 7.52.37-.37v6.67c0 .53.43.96.96.96s.96-.43.96-.96v-6.66l.37.37c.19.19.43.28.68.28s.49-.09.68-.28c.38-.38.38-.98 0-1.36l-2.01-2.01c-.38-.38-.98-.38-1.36 0l-2.01 2.01c-.38.38-.38.98 0 1.36.37.37.98.37 1.36-.01z"/><path d="m17.28 10.65.37-.37v6.67c0 .53.43.96.96.96s.96-.43.96-.96v-6.67l.37.37c.19.19.43.28.68.28s.49-.09.68-.28c.38-.38.38-.98 0-1.36l-2.01-2.01c-.36-.36-1-.36-1.36 0l-2.01 2.01c-.38.38-.38.98 0 1.36.38.37.98.37 1.36 0z"/></g></g></svg>