<svg height="65" viewBox="-21 -21 682.66569 682.66569" width="65" xmlns="http://www.w3.org/2000/svg"><path d="m466.109375 210.628906c-23.019531-30.699218-55.78125-53.804687-92.265625-65.054687-6.59375-2.03125-13.59375 1.667969-15.632812 8.261719-2.03125 6.597656 1.667968 13.59375 8.261718 15.632812 66.414063 20.472656 111.027344 80.96875 111.027344 150.53125 0 37.878906-13.449219 72.679688-35.8125 99.878906-8.914062-42.199218-39.289062-76.574218-79.128906-91.128906 11.140625-11 18.066406-26.265625 18.066406-43.125 0-33.429688-27.199219-60.625-60.625-60.625-33.429688 0-60.625 27.195312-60.625 60.625 0 16.859375 6.921875 32.128906 18.070312 43.125-39.84375 14.554688-70.214843 48.929688-79.136718 91.128906-22.363282-27.199218-35.808594-62-35.808594-99.878906 0-69.707031 44.734375-130.234375 111.316406-150.625 6.601563-2.023438 10.3125-9.015625 8.292969-15.617188-2.023437-6.59375-9.007813-10.304687-15.609375-8.289062-36.570312 11.195312-69.421875 34.285156-92.507812 65.019531-23.871094 31.785157-36.492188 69.652344-36.492188 109.511719 0 100.628906 81.871094 182.5 182.5 182.5s182.5-81.871094 182.5-182.5c0-39.796875-12.582031-77.617188-36.390625-109.371094zm-181.734375 74.996094c0-19.644531 15.980469-35.625 35.625-35.625s35.625 15.980469 35.625 35.625-15.980469 35.625-35.625 35.625-35.625-15.980469-35.625-35.625zm-63.664062 156.542969c1.832031-53.199219 45.65625-95.917969 99.289062-95.917969s97.457031 42.71875 99.285156 95.917969c-27.113281 22.074219-61.679687 35.332031-99.285156 35.332031-37.609375 0-72.171875-13.257812-99.289062-35.332031zm0 0"/><path d="m297.925781 52.253906 9.574219-9.574218v51.28125c0 6.902343 5.59375 12.5 12.5 12.5 6.902344 0 12.5-5.597657 12.5-12.5v-51.28125l9.578125 9.574218c2.4375 2.441406 5.640625 3.664063 8.839844 3.664063s6.394531-1.222657 8.835937-3.664063c4.882813-4.882812 4.882813-12.796875 0-17.679687l-30.917968-30.914063c-4.875-4.878906-12.792969-4.878906-17.675782 0l-30.917968 30.914063c-4.875 4.882812-4.875 12.796875 0 17.679687 4.882812 4.882813 12.800781 4.882813 17.683593 0zm0 0"/><path d="m342.078125 587.742188-9.578125 9.582031v-51.285157c0-6.902343-5.597656-12.5-12.5-12.5-6.90625 0-12.5 5.597657-12.5 12.5v51.285157l-9.574219-9.582031c-4.882812-4.882813-12.800781-4.882813-17.683593 0-4.882813 4.882812-4.882813 12.800781 0 17.683593l30.917968 30.910157c2.441406 2.441406 5.640625 3.664062 8.839844 3.664062s6.394531-1.222656 8.835938-3.664062l30.917968-30.910157c4.878906-4.882812 4.878906-12.800781 0-17.683593-4.882812-4.882813-12.796875-4.882813-17.675781 0zm0 0"/><path d="m636.335938 311.160156-30.910157-30.917968c-4.882812-4.882813-12.800781-4.882813-17.683593 0-4.875 4.882812-4.875 12.800781 0 17.683593l9.582031 9.574219h-51.285157c-6.902343 0-12.5 5.59375-12.5 12.5 0 6.902344 5.597657 12.5 12.5 12.5h51.285157l-9.582031 9.578125c-4.875 4.878906-4.875 12.792969 0 17.675781 2.441406 2.441406 5.640624 3.664063 8.839843 3.664063s6.402344-1.222657 8.84375-3.664063l30.910157-30.910156c4.882812-4.890625 4.882812-12.804688 0-17.683594zm0 0"/><path d="m42.679688 332.5h51.28125c6.902343 0 12.5-5.597656 12.5-12.5 0-6.90625-5.597657-12.5-12.5-12.5h-51.28125l9.574218-9.582031c4.882813-4.875 4.882813-12.792969 0-17.675781-4.882812-4.882813-12.796875-4.882813-17.675781 0l-30.917969 30.917968c-4.882812 4.878906-4.882812 12.792969 0 17.675782l30.917969 30.917968c2.4375 2.441406 5.640625 3.664063 8.839844 3.664063s6.394531-1.222657 8.835937-3.664063c4.882813-4.882812 4.882813-12.796875 0-17.679687zm0 0"/><path d="m479.832031 172.664062c3.199219 0 6.402344-1.21875 8.839844-3.660156l36.265625-36.261718v13.546874c0 6.902344 5.59375 12.5 12.5 12.5 6.902344 0 12.5-5.597656 12.5-12.5v-43.726562c0-6.902344-5.597656-12.5-12.5-12.5h-43.726562c-6.90625 0-12.5 5.597656-12.5 12.5 0 6.90625 5.59375 12.5 12.5 12.5h13.542968l-36.257812 36.265625c-4.882813 4.878906-4.882813 12.792969 0 17.675781 2.441406 2.441406 5.640625 3.660156 8.835937 3.660156zm0 0"/><path d="m151.328125 470.996094-36.265625 36.257812v-13.539062c0-6.902344-5.59375-12.5-12.5-12.5-6.902344 0-12.5 5.597656-12.5 12.5v43.722656c0 6.902344 5.597656 12.5 12.5 12.5h43.726562c6.902344 0 12.5-5.597656 12.5-12.5 0-6.90625-5.597656-12.5-12.5-12.5h-13.546874l36.261718-36.261719c4.882813-4.882812 4.882813-12.796875 0-17.679687-4.878906-4.882813-12.792968-4.882813-17.675781 0zm0 0"/><path d="m537.4375 481.214844c-6.90625 0-12.5 5.597656-12.5 12.5v13.539062l-36.265625-36.257812c-4.878906-4.882813-12.792969-4.882813-17.675781 0-4.882813 4.882812-4.882813 12.796875 0 17.679687l36.257812 36.261719h-13.542968c-6.90625 0-12.5 5.59375-12.5 12.5 0 6.902344 5.59375 12.5 12.5 12.5h43.726562c6.902344 0 12.5-5.597656 12.5-12.5v-43.722656c0-6.902344-5.597656-12.5-12.5-12.5zm0 0"/><path d="m102.5625 158.789062c6.90625 0 12.5-5.597656 12.5-12.5v-13.546874l36.265625 36.261718c2.441406 2.441406 5.640625 3.660156 8.835937 3.660156 3.199219 0 6.398438-1.21875 8.839844-3.660156 4.882813-4.882812 4.882813-12.796875 0-17.675781l-36.261718-36.265625h13.542968c6.902344 0 12.5-5.59375 12.5-12.5 0-6.902344-5.597656-12.5-12.5-12.5h-43.722656c-6.902344 0-12.5 5.597656-12.5 12.5v43.726562c0 6.902344 5.597656 12.5 12.5 12.5zm0 0"/><path d="m320 137.5c-3.285156 0-6.515625 1.335938-8.839844 3.660156-2.324218 2.324219-3.660156 5.554688-3.660156 8.839844s1.335938 6.511719 3.660156 8.835938c2.324219 2.324218 5.554688 3.664062 8.839844 3.664062s6.511719-1.339844 8.835938-3.664062c2.324218-2.324219 3.664062-5.550782 3.664062-8.835938s-1.339844-6.515625-3.664062-8.839844c-2.324219-2.324218-5.550782-3.660156-8.835938-3.660156zm0 0"/></svg>