<svg id="Layer_1" enable-background="new 0 0 512.002 512.002" height="48" viewBox="0 0 512.002 512.002" width="48" xmlns="http://www.w3.org/2000/svg"><g><path d="m233.073 47.07 12.928-12.928v65.858c0 5.522 4.478 10 10 10s10-4.478 10-10v-65.859l12.929 12.929c1.953 1.952 4.512 2.929 7.071 2.929 8.693.15 13.402-10.92 7.071-17.071 0 0-30-29.999-30-29.999-3.906-3.904-10.236-3.904-14.143 0l-29.999 29.999c-9.029 9.676 4.449 23.18 14.143 14.142z"/><path d="m82.053 134.477c5.523 0 10-4.478 10-10v-18.283l46.568 46.568c3.906 3.905 10.237 3.905 14.143 0 3.905-3.905 3.905-10.237 0-14.143l-46.568-46.568h18.284c13.234-.482 13.261-19.507 0-20h-42.427c-2.652 0-5.196 1.054-7.071 2.929-1.875 1.876-2.929 4.419-2.929 7.071l.001 42.426c-.001 5.524 4.476 10 9.999 10z"/><path d="m34.143 266.001h65.857c5.522 0 10-4.478 10-10s-4.478-10-10-10h-65.857l12.929-12.929c3.905-3.905 3.905-10.237 0-14.143-3.906-3.904-10.236-3.904-14.143 0l-30 30c-1.875 1.877-2.929 4.42-2.929 7.072s1.054 5.196 2.929 7.071l30 29.999c3.906 3.905 10.237 3.905 14.143 0 3.905-3.905 3.905-10.237 0-14.143z"/><path d="m138.62 359.239-46.568 46.568v-18.284c0-5.522-4.477-10-10-10-5.522 0-10 4.478-10 10l-.001 42.427c0 2.652 1.054 5.195 2.929 7.071 1.876 1.875 4.419 2.929 7.071 2.929l42.427-.001c5.523 0 10-4.478 10-10 0-5.523-4.478-10-10-10l-18.284.001 46.568-46.568c3.905-3.905 3.905-10.237 0-14.143-3.906-3.904-10.236-3.904-14.142 0z"/><path d="m278.93 464.931-12.929 12.929v-65.857c0-5.522-4.478-10-10-10s-10 4.478-10 10v65.857l-12.928-12.928c-3.904-3.903-10.234-3.905-14.143 0-3.905 3.905-3.905 10.237 0 14.143l29.999 30c1.875 1.875 4.419 2.929 7.071 2.929s5.195-1.054 7.071-2.929l30-30c9.031-9.675-4.446-23.184-14.141-14.144z"/><path d="m429.95 377.523c-5.522 0-10 4.478-10 10v18.284l-46.568-46.568c-3.906-3.904-10.236-3.904-14.143 0-3.905 3.905-3.905 10.237 0 14.143l46.568 46.568s-18.283-.001-18.283-.001c-13.234.482-13.262 19.507 0 20 0 0 42.426.001 42.426.001 2.652 0 5.195-1.054 7.071-2.929 1.875-1.875 2.929-4.419 2.929-7.071v-42.427c0-5.522-4.477-10-10-10z"/><path d="m509.073 248.93-29.999-30c-9.681-9.034-23.18 4.458-14.142 14.143 0 0 12.929 12.929 12.929 12.929h-65.858c-5.522 0-10 4.478-10 10s4.478 10 10 10h65.858l-12.928 12.928c-6.322 6.146-1.634 17.222 7.072 17.071 2.559 0 5.118-.976 7.071-2.929l29.999-29.999c3.904-3.906 3.904-10.238-.002-14.143z"/><path d="m366.311 155.691c2.56 0 5.118-.977 7.071-2.929l46.568-46.568v18.283c0 5.522 4.478 10 10 10s10-4.478 10-10v-42.425c0-5.522-4.478-10-10-10h-42.426c-5.522 0-10 4.478-10 10s4.478 10 10 10h18.283l-46.568 46.568c-6.323 6.146-1.632 17.223 7.072 17.071z"/><path d="m325.521 173.648-175.929 64.576c-3.696 1.356-6.252 4.755-6.529 8.682-.278 3.927 1.773 7.651 5.241 9.515l69.78 37.497 37.497 69.78c1.856 3.473 5.624 5.526 9.515 5.241 3.927-.277 7.325-2.833 8.682-6.529l64.576-175.929c3.002-7.771-5.003-15.866-12.833-12.833zm-62.853 160.986-28.391-52.834c-.929-1.729-2.346-3.146-4.075-4.075l-52.834-28.391 134.768-49.468z"/></g></svg>