<svg xmlns="http://www.w3.org/2000/svg" width="32" height="32" viewBox="0 0 32 32"><style>
@keyframes a0_t { 0% { transform: translate(-3.5px,16.1px) rotate(45deg) translate(-9.5px,-15.8px); } 14.286% { transform: translate(7.5px,16.1px) rotate(45deg) translate(-9.5px,-15.8px); } 28.571% { transform: translate(9.5px,16.1px) rotate(45deg) translate(-9.5px,-15.8px); } 42.857% { transform: translate(8.5px,16.1px) rotate(45deg) translate(-9.5px,-15.8px); } 53.571% { transform: translate(9.5px,16.1px) rotate(45deg) translate(-9.5px,-15.8px); } 64.286% { transform: translate(8.5px,16.1px) rotate(45deg) translate(-9.5px,-15.8px); } 100% { transform: translate(8.5px,16.1px) rotate(45deg) translate(-9.5px,-15.8px); } }
@keyframes a1_o { 0% { opacity: 1; } 28.571% { opacity: 1; } 35.714% { opacity: 0; } 42.857% { opacity: 1; } 53.571% { opacity: 1; } 55.714% { opacity: 0; } 64.286% { opacity: 1; } 100% { opacity: 1; } }
</style><g fill="none" fill-rule="evenodd" transform="translate(-2.1,-0.5)"><g stroke="#000" stroke-width="2.3" transform="translate(-884,-1864)"><g transform="translate(-322,1663)"><g transform="translate(1206,201)"><path d="M16.4 1.6c.3 0 .7 .1 1 .3l11.2 6.4c.6 .4 .9 1 .9 1.7v12.9c0 .7-0.3 1.4-0.9 1.7l-11.2 6.5c-0.3 .1-0.7 .2-1 .2c-0.3 0-0.6-0.1-0.9-0.2l-11.3-6.5c-0.5-0.3-0.9-1-0.9-1.7v-12.9c0-0.7 .4-1.3 .9-1.7l11.3-6.4c.3-0.2 .6-0.3 .9-0.3Z"/><path stroke-linecap="square" d="M6.5 12.5h6v6.5" transform="translate(-3.5,16.1) rotate(45) translate(-9.5,-15.8)" style="animation: 2.8s linear infinite both a0_t;"/><path stroke-linecap="square" d="M16.5 20.5h6" stroke="#ea4335" style="animation: 2.8s linear infinite both a1_o;"/></g></g></g></g></svg>