<svg height="60" viewBox="0 -91 512 512" width="60" xmlns="http://www.w3.org/2000/svg"><path d="m512 288h-106.667969v-21.332031h85.335938v-10.667969c0-129.332031-105.335938-234.667969-234.667969-234.667969s-234.667969 105.335938-234.667969 234.667969v10.667969h85.335938v21.332031h-106.667969v-32c0-141.199219 114.800781-256 256-256s256 114.800781 256 256zm0 0"/><path d="m245.332031 10.667969h21.335938v64h-21.335938zm0 0"/><path d="m79.726562 85.949219 51.664063 51.664062-15.082031 15.085938-51.667969-51.664063zm0 0"/><path d="m432.292969 85.964844 15.085937 15.085937-51.667968 51.664063-15.082032-15.085938zm0 0"/><path d="m259.066406 330.667969c-31.066406 0-56.398437-25.335938-56.398437-56.402344 0-21.597656 12.664062-41.597656 32.132812-50.933594l144-68.664062-68.667969 144c-9.332031 19.332031-29.332031 32-51.066406 32zm74.535156-130.933594-89.601562 42.800781c-12.132812 5.730469-20 18.265625-20 31.730469 0 19.335937 15.734375 35.066406 35.066406 35.066406 13.46875 0 25.867188-7.867187 31.734375-20zm0 0"/></svg>