<svg height="80" viewBox="0 0 32 32" width="80" xmlns="http://www.w3.org/2000/svg"><g id="install_x2C__software_x2C__repair_x2C__overhaul_x2C__wrench"><g><g><path d="m30.5 23c-.276 0-.5-.224-.5-.5v-19c0-.275-.225-.5-.5-.5h-27c-.275 0-.5.225-.5.5v17c0 .276-.224.5-.5.5s-.5-.224-.5-.5v-17c0-.827.673-1.5 1.5-1.5h27c.827 0 1.5.673 1.5 1.5v19c0 .276-.224.5-.5.5z" fill="rgb(0,0,0)"/></g><path d="m22 31h-11.5c-.276 0-.5-.224-.5-.5s.224-.5.5-.5h1c.827 0 1.5-.673 1.5-1.5v-1c0-.276.224-.5.5-.5s.5.224.5.5v1c0 .563-.187 1.082-.501 1.5h5.002c-.314-.418-.501-.937-.501-1.5v-3c0-.276.224-.5.5-.5s.5.224.5.5v3c0 .827.673 1.5 1.5 1.5h1.5c.276 0 .5.224.5.5s-.224.5-.5.5z" fill="rgb(0,0,0)"/><g id="setting_x2C__service_x2C__tools_1_"><path d="m25.03 22.998c-.128 0-.256-.049-.354-.146l-5.702-5.702-2.835.386c-.154.021-.311-.03-.421-.142l-3.54-3.54c-.094-.094-.146-.221-.146-.354v-3c0-.202.122-.385.309-.462.187-.075.402-.034.545.108l2.823 2.823 2.881-.412.412-2.881-2.823-2.823c-.143-.143-.186-.358-.108-.545s.259-.308.461-.308h3c.133 0 .26.053.354.146l3.5 3.5c.109.109.162.263.143.415l-.358 2.869 5.716 5.716c.195.195.195.512 0 .707s-.512.195-.707 0l-5.889-5.889c-.109-.109-.162-.263-.143-.415l.358-2.869-3.181-3.18h-1.586l2.146 2.146c.111.111.164.269.142.424l-.5 3.5c-.031.221-.204.394-.425.425l-3.5.5c-.156.02-.313-.03-.424-.142l-2.146-2.146v1.586l3.218 3.218 2.835-.386c.154-.021.311.031.421.142l5.878 5.878c.195.195.195.512 0 .707-.098.097-.226.146-.354.146z" fill="rgb(0,0,0)"/><g><path d="m26.532 21c-.128 0-.256-.049-.354-.146l-5-5c-.195-.195-.195-.512 0-.707s.512-.195.707 0l5 5c.195.195.195.512 0 .707-.097.097-.225.146-.353.146z" fill="rgb(0,0,0)"/></g></g><path d="m29.5 26h-27c-.827 0-1.5-.673-1.5-1.5v-2c0-.276.224-.5.5-.5h26c.276 0 .5.224.5.5s-.224.5-.5.5h-25.5v1.5c0 .275.225.5.5.5h27c.275 0 .5-.225.5-.5v-2c0-.276.224-.5.5-.5s.5.224.5.5v2c0 .827-.673 1.5-1.5 1.5z" fill="rgb(0,0,0)"/></g><g fill="rgb(0,0,0)"><circle cx="9.5" cy="18.5" r=".5"/><circle cx="5.5" cy="18.5" r=".5"/><circle cx="7.5" cy="18.5" r=".5"/></g></g></svg>