<?xml version="1.0" encoding="iso-8859-1"?>
<!-- Generator: Adobe Illustrator 19.0.0, SVG Export Plug-In . SVG Version: 6.00 Build 0)  -->
<svg width="60" height="60" version="1.1" id="Capa_1" xmlns="http://www.w3.org/2000/svg" xmlns:xlink="http://www.w3.org/1999/xlink" x="0px" y="0px"
	 viewBox="0 0 512 512" style="enable-background:new 0 0 512 512;" xml:space="preserve">
<g>
	<g>
		<path d="M468.178,145.227c-0.544-1.301-1.323-2.464-2.304-3.445L327.218,3.125C325.224,1.12,322.504,0,319.677,0h-224
			C66.269,0,42.344,23.925,42.344,53.333v149.333c0,22.133,13.376,64,64,64v0h230.251l-24.459,24.459
			c-4.171,4.171-4.171,10.912,0,15.083c2.08,2.08,4.811,3.125,7.541,3.125c2.731,0,5.461-1.045,7.541-3.125l42.656-42.656
			c0.992-0.981,1.771-2.165,2.315-3.477c1.077-2.603,1.077-5.547,0-8.149c-0.544-1.312-1.323-2.485-2.315-3.477l-42.656-42.656
			c-4.171-4.171-10.912-4.171-15.083,0c-4.171,4.171-4.171,10.912,0,15.083l24.459,24.459H106.344
			c-41.099,0-42.635-38.347-42.667-42.667V53.333c0-17.643,14.357-32,32-32h219.584l117.333,117.333h-70.251
			c-17.643,0-32-14.357-32-32v-32c0-5.899-4.779-10.667-10.667-10.667s-10.667,4.768-10.667,10.667v32
			c0,29.408,23.925,53.333,53.333,53.333h85.333v149.333c0,5.899,4.779,10.667,10.667,10.667s10.667-4.768,10.667-10.667v-160
			C469.01,147.904,468.722,146.517,468.178,145.227z"/>
	</g>
</g>
<g>
	<g>
		<path d="M457.981,361.771c-11.115-13.557-28.939-20.437-52.971-20.437H164.093l24.459-24.459c4.171-4.171,4.171-10.912,0-15.083
			c-4.171-4.171-10.912-4.171-15.083,0l-42.656,42.656c-0.992,0.981-1.771,2.165-2.315,3.477c-1.077,2.603-1.077,5.547,0,8.149
			c0.544,1.312,1.323,2.485,2.315,3.477l42.656,42.656c2.08,2.08,4.811,3.125,7.541,3.125c2.731,0,5.461-1.045,7.541-3.125
			c4.171-4.171,4.171-10.912,0-15.083l-24.459-24.459H405.01c17.248,0,29.483,4.213,36.373,12.512
			c9.483,11.424,6.517,27.957,6.496,28.064c-0.139,0.683-0.203,1.397-0.203,2.091v53.333c0,17.643-14.357,32-32,32h-320
			c-30.112,0-31.936-26.709-32-32V288c0-5.899-4.779-10.667-10.667-10.667S42.344,282.101,42.344,288v170.667
			C42.344,477.109,53.49,512,95.677,512h320c29.408,0,53.333-23.925,53.333-53.333v-52.448
			C469.832,400.821,472.082,378.955,457.981,361.771z"/>
	</g>
</g>
<g>
</g>
<g>
</g>
<g>
</g>
<g>
</g>
<g>
</g>
<g>
</g>
<g>
</g>
<g>
</g>
<g>
</g>
<g>
</g>
<g>
</g>
<g>
</g>
<g>
</g>
<g>
</g>
<g>
</g>
</svg>
