<svg id="Layer_1" height="48" viewBox="0 0 52 52" width="48" xmlns="http://www.w3.org/2000/svg"><g fill="rgb(0,0,0)"><path d="m46.713 8.829c-.069-.399-.373-.718-.769-.806-.134-.029-13.481-3.008-19.508-5.923-.275-.133-.596-.133-.871 0-6.028 2.915-19.375 5.894-19.509 5.923-.396.088-.7.407-.769.806-.013.073-1.133 7.938 1.152 17.277 2.778 11.349 9.404 19.582 19.163 23.812.127.055.262.082.398.082s.271-.027.397-.082c9.759-4.229 16.385-12.463 19.163-23.812 2.286-9.339 1.166-17.204 1.153-17.277zm-3.096 16.802c-2.622 10.715-8.549 18.207-17.617 22.276-9.068-4.069-14.995-11.562-17.617-22.276-1.792-7.32-1.391-13.795-1.197-15.812 2.806-.646 13.197-3.128 18.814-5.714 5.617 2.586 16.008 5.067 18.814 5.713.194 2.018.595 8.493-1.197 15.813z"/><path d="m41.234 12.045c-2.059-.51-4.064-1.041-5.961-1.579-.534-.154-1.085.157-1.235.688-.15.532.157 1.085.688 1.235 1.688.479 3.459.952 5.276 1.409.003 1.688-.088 3.397-.272 5.093-.06.549.337 1.043.886 1.103.037.004.073.006.11.006.504 0 .938-.38.993-.892.222-2.036.314-4.092.275-6.112-.009-.452-.32-.843-.76-.951z"/><path d="m31.5 21h-11c-1.654 0-3 1.346-3 3v8c0 1.654 1.346 3 3 3h11c1.654 0 3-1.346 3-3v-8c0-1.654-1.346-3-3-3zm1 11c0 .552-.448 1-1 1h-11c-.552 0-1-.448-1-1v-8c0-.552.448-1 1-1h11c.552 0 1 .448 1 1z"/><path d="m21 20c.553 0 1-.447 1-1 0-2.206 1.794-4 4-4s4 1.794 4 4c0 .553.447 1 1 1s1-.447 1-1c0-3.309-2.691-6-6-6s-6 2.691-6 6c0 .553.447 1 1 1z"/></g></svg>