<svg height="100" viewBox="0 0 512.00004 512" width="100" xmlns="http://www.w3.org/2000/svg"><path d="m463.113281 217.660156c.9375 0 1.890625-.132812 2.832031-.414062 5.292969-1.570313 8.324219-7.109375 6.753907-12.40625-.011719-.042969-.042969-.152344-.058594-.195313-1.585937-5.292969-7.175781-8.324219-12.460937-6.742187-5.289063 1.585937-8.304688 7.125-6.714844 12.414062.007812.035156.035156.125.042968.160156 1.292969 4.351563 5.285157 7.183594 9.605469 7.183594zm0 0"/><path d="m469.585938 236.652344c-5.496094.578125-9.480469 5.5-8.902344 10.992187.8125 7.710938 1.222656 15.578125 1.222656 23.386719 0 121.835938-99.117188 220.957031-220.953125 220.957031-121.832031 0-220.953125-99.121093-220.953125-220.957031 0-48.039062 15.042969-93.453125 43.550781-131.726562 4.503907 2.238281 9.570313 3.503906 14.933594 3.503906 18.558594 0 33.660156-15.101563 33.660156-33.664063 0-5.40625-1.285156-10.511719-3.558593-15.042969 38.40625-28.816406 84.058593-44.023437 132.367187-44.023437 20.664063 0 41.113281 2.847656 60.785156 8.464844 5.308594 1.519531 10.84375-1.558594 12.363281-6.871094 1.515626-5.3125-1.5625-10.84375-6.871093-12.359375-21.457031-6.128906-43.757813-9.234375-66.277344-9.234375-53.515625 0-104.039063 17.121094-146.339844 49.53125-4.792969-2.628906-10.289062-4.128906-16.128906-4.128906-18.566406 0-33.664063 15.101562-33.664063 33.664062 0 5.882813 1.519532 11.417969 4.179688 16.230469-32.066406 42.160156-49 92.429688-49 145.65625 0 64.363281 25.0625 124.871094 70.574219 170.382812 45.507812 45.507813 106.019531 70.570313 170.378906 70.570313 64.363281 0 124.871094-25.0625 170.382813-70.570313 45.507812-45.511718 70.570312-106.019531 70.570312-170.382812 0-8.503906-.445312-17.078125-1.332031-25.480469-.578125-5.492187-5.480469-9.46875-10.988281-8.898437zm-391.101563-141.171875c7.53125 0 13.660156 6.128906 13.660156 13.664062 0 7.535157-6.128906 13.664063-13.660156 13.664063-7.535156 0-13.664063-6.128906-13.664063-13.664063 0-7.535156 6.128907-13.664062 13.664063-13.664062zm0 0"/><path d="m506.996094 63.949219-108.4375-62.609375c-2.296875-1.3281252-5.027344-1.683594-7.589844-1-2.5625.6875-4.746094 2.363281-6.070312 4.660156l-46.164063 79.957031v.003907l-13.113281 22.710937c-25.359375-13.195313-54.15625-20.667969-84.667969-20.667969-101.472656 0-184.027344 82.554688-184.027344 184.027344 0 101.476562 82.554688 184.03125 184.027344 184.03125 101.476563 0 184.03125-82.554688 184.03125-184.03125 0-63.824219-32.664063-120.15625-82.148437-153.175781l8.21875-14.238281 99.78125 57.609374c1.53125.886719 3.257812 1.339844 5 1.339844.867187 0 1.734374-.113281 2.585937-.339844 2.5625-.6875 4.746094-2.363281 6.074219-4.660156l46.164062-79.957031c2.761719-4.785156 1.121094-10.902344-3.664062-13.660156zm-102.011719 207.082031c0 90.449219-73.585937 164.03125-164.03125 164.03125s-164.03125-73.582031-164.03125-164.03125c0-90.445312 73.585937-164.027344 164.03125-164.027344 26.871094 0 52.253906 6.496094 74.660156 17.996094l-10.832031 18.765625c-2.761719 4.78125-1.121094 10.898437 3.660156 13.660156 1.574219.90625 3.292969 1.339844 4.992188 1.339844 3.453125 0 6.816406-1.792969 8.667968-5l10.714844-18.5625c43.519532 29.527344 72.167969 79.394531 72.167969 135.828125zm47.191406-132.125-91.121093-52.609375 23.796874-41.21875 12.367188-21.417969 91.121094 52.609375zm0 0"/><path d="m262.433594 271.03125c0 28.726562 23.371094 52.09375 52.09375 52.09375s52.09375-23.367188 52.09375-52.09375c0-28.722656-23.371094-52.089844-52.09375-52.089844s-52.09375 23.367188-52.09375 52.089844zm84.1875 0c0 17.695312-14.398438 32.09375-32.09375 32.09375-17.699219 0-32.09375-14.394531-32.09375-32.09375 0-17.695312 14.394531-32.089844 32.09375-32.089844 17.695312 0 32.09375 14.394532 32.09375 32.089844zm0 0"/><path d="m206.902344 138.765625c-18.648438 0-33.816406 15.167969-33.816406 33.816406 0 18.644531 15.167968 33.816407 33.816406 33.816407 18.644531 0 33.816406-15.171876 33.816406-33.816407 0-18.648437-15.167969-33.816406-33.816406-33.816406zm0 47.632813c-7.617188 0-13.816406-6.199219-13.816406-13.816407 0-7.621093 6.199218-13.816406 13.816406-13.816406 7.617187 0 13.816406 6.195313 13.816406 13.816406 0 7.617188-6.199219 13.816407-13.816406 13.816407zm0 0"/><path d="m185.089844 271.644531c-30.675782 0-55.628906 24.953125-55.628906 55.628907 0 30.675781 24.953124 55.628906 55.628906 55.628906 30.675781 0 55.628906-24.953125 55.628906-55.628906 0-30.675782-24.953125-55.628907-55.628906-55.628907zm0 91.257813c-19.648438 0-35.628906-15.980469-35.628906-35.628906 0-19.648438 15.980468-35.628907 35.628906-35.628907 19.644531 0 35.628906 15.980469 35.628906 35.628907 0 19.648437-15.984375 35.628906-35.628906 35.628906zm0 0"/><path d="m280.21875 375.640625c-2.628906 0-5.210938 1.0625-7.070312 2.921875-1.859376 1.871094-2.929688 4.4375-2.929688 7.070312 0 2.640626 1.070312 5.207032 2.929688 7.070313 1.859374 1.867187 4.441406 2.9375 7.070312 2.9375s5.210938-1.070313 7.070312-2.9375c1.859376-1.863281 2.929688-4.429687 2.929688-7.070313 0-2.632812-1.070312-5.199218-2.929688-7.070312-1.859374-1.859375-4.441406-2.921875-7.070312-2.921875zm0 0"/><path d="m280.21875 196.144531c2.628906 0 5.210938-1.070312 7.070312-2.929687 1.859376-1.863282 2.929688-4.441406 2.929688-7.070313 0-2.640625-1.070312-5.210937-2.929688-7.070312-1.859374-1.871094-4.441406-2.929688-7.070312-2.929688s-5.210938 1.058594-7.070312 2.929688c-1.859376 1.859375-2.929688 4.429687-2.929688 7.070312 0 2.628907 1.070312 5.207031 2.929688 7.070313 1.859374 1.859375 4.429687 2.929687 7.070312 2.929687zm0 0"/><path d="m128.820312 227.882812c-1.859374-1.859374-4.441406-2.929687-7.070312-2.929687s-5.210938 1.070313-7.070312 2.929687c-1.859376 1.859376-2.929688 4.4375-2.929688 7.070313 0 2.628906 1.070312 5.210937 2.929688 7.070313 1.859374 1.859374 4.441406 2.929687 7.070312 2.929687s5.210938-1.070313 7.070312-2.929687c1.859376-1.859376 2.929688-4.441407 2.929688-7.070313 0-2.632813-1.070312-5.210937-2.929688-7.070313zm0 0"/></svg>