<?xml version="1.0"?>
<svg xmlns="http://www.w3.org/2000/svg" id="Layer_1" data-name="Layer 1" viewBox="0 0 125 125" width="65" height="65"><path d="M31.972,86.093a2,2,0,0,1-2-2V71.727H24.709A10.221,10.221,0,0,1,14.5,61.518V26.136A10.22,10.22,0,0,1,24.709,15.928H71.592A10.22,10.22,0,0,1,81.8,26.136V61.518A10.221,10.221,0,0,1,71.592,71.727H47.166l-13.78,13.78A2,2,0,0,1,31.972,86.093ZM24.709,19.928A6.215,6.215,0,0,0,18.5,26.136V61.518a6.216,6.216,0,0,0,6.209,6.209h7.263a2,2,0,0,1,2,2v9.538L44.924,68.313a2,2,0,0,1,1.414-.586H71.592A6.216,6.216,0,0,0,77.8,61.518V26.136a6.215,6.215,0,0,0-6.209-6.208Z"/><path d="M93.028,109.072a2,2,0,0,1-1.414-.586l-13.78-13.78H53.408A10.221,10.221,0,0,1,43.2,84.5V77.046h4V84.5a6.216,6.216,0,0,0,6.209,6.209H78.662a2,2,0,0,1,1.414.586l10.952,10.952V92.706a2,2,0,0,1,2-2h7.263A6.216,6.216,0,0,0,106.5,84.5V49.115a6.215,6.215,0,0,0-6.209-6.208H85.88v-4h14.411A10.22,10.22,0,0,1,110.5,49.115V84.5a10.221,10.221,0,0,1-10.209,10.209H95.028v12.366a2,2,0,0,1-2,2Z"/><path d="M34.89,46.45a2,2,0,0,1-1.411-3.42,2.083,2.083,0,0,1,2.831,0,2.016,2.016,0,0,1,0,2.83A2.049,2.049,0,0,1,34.89,46.45Z"/><path d="M50.439,45.92a2.005,2.005,0,0,1-1.409-.59,1.98,1.98,0,0,1-.591-1.41,1.781,1.781,0,0,1,.04-.39,2.486,2.486,0,0,1,.111-.38,2.268,2.268,0,0,1,.19-.34,1.479,1.479,0,0,1,.25-.31,2.484,2.484,0,0,1,.3-.25,2.166,2.166,0,0,1,.34-.18,1.815,1.815,0,0,1,.38-.11,1.712,1.712,0,0,1,.78,0,1.815,1.815,0,0,1,.38.11,2.258,2.258,0,0,1,.34.18,2.484,2.484,0,0,1,.3.25,1.479,1.479,0,0,1,.25.31,2.268,2.268,0,0,1,.19.34,1.606,1.606,0,0,1,.109.38,1.667,1.667,0,0,1,.04.39,1.986,1.986,0,0,1-.589,1.41A2.01,2.01,0,0,1,50.439,45.92Z"/><path d="M65.99,45.92a2.553,2.553,0,0,1-.39-.04,2.4,2.4,0,0,1-.38-.12,2.211,2.211,0,0,1-.34-.18,2.5,2.5,0,0,1-.311-.25,2.019,2.019,0,0,1,0-2.83,3.954,3.954,0,0,1,.311-.25,2.211,2.211,0,0,1,.34-.18,1.657,1.657,0,0,1,.38-.11,2.014,2.014,0,0,1,1.8.54,2.263,2.263,0,0,1,.25.31,2.133,2.133,0,0,1,.181.34,2.4,2.4,0,0,1,.12.38,1.921,1.921,0,0,1,0,.78,2.285,2.285,0,0,1-.12.37,2.231,2.231,0,0,1-.181.35,1.717,1.717,0,0,1-.25.3A2,2,0,0,1,65.99,45.92Z"/></svg>
