<?xml version="1.0" encoding="utf-8"?>
<!-- Generator: Adobe Illustrator 15.0.0, SVG Export Plug-In . SVG Version: 6.00 Build 0)  -->
<!DOCTYPE svg PUBLIC "-//W3C//DTD SVG 1.1//EN" "http://www.w3.org/Graphics/SVG/1.1/DTD/svg11.dtd">
<svg version="1.1" id="Layer_1" xmlns="http://www.w3.org/2000/svg" xmlns:xlink="http://www.w3.org/1999/xlink" x="0px" y="0px"
	 width="670px" height="180px" viewBox="0 0 670 180" enable-background="new 0 0 670 180" xml:space="preserve">
<g>
	<path fill="#231F20" d="M193.966,73.225h-14.152v38.735h-5.886V73.225h-14.183v-4.972h34.221V73.225z"/>
	<path fill="#231F20" d="M235.843,68.253v43.707h-5.917V92.074h-23.577v19.886h-5.917V68.253h5.917v19.49h23.577v-19.49H235.843z"/>
	<path fill="#231F20" d="M287.387,90.122c0,3.273-0.519,6.278-1.555,9.013c-1.037,2.735-2.501,5.089-4.392,7.061
		c-1.891,1.973-4.164,3.503-6.817,4.591s-5.587,1.631-8.799,1.631c-3.213,0-6.141-0.543-8.784-1.631
		c-2.644-1.088-4.911-2.618-6.802-4.591c-1.891-1.972-3.355-4.325-4.392-7.061c-1.037-2.734-1.555-5.739-1.555-9.013
		s0.519-6.278,1.555-9.013c1.037-2.735,2.501-5.094,4.392-7.076s4.158-3.523,6.802-4.621c2.643-1.098,5.571-1.647,8.784-1.647
		c3.212,0,6.146,0.549,8.799,1.647c2.653,1.098,4.926,2.638,6.817,4.621s3.355,4.341,4.392,7.076
		C286.868,83.844,287.387,86.849,287.387,90.122z M281.317,90.122c0-2.684-0.366-5.094-1.098-7.229
		c-0.732-2.135-1.769-3.939-3.111-5.414c-1.342-1.474-2.969-2.607-4.88-3.4c-1.912-0.793-4.047-1.189-6.405-1.189
		c-2.338,0-4.463,0.396-6.375,1.189c-1.912,0.793-3.543,1.927-4.895,3.4c-1.353,1.475-2.395,3.279-3.126,5.414
		c-0.732,2.135-1.098,4.544-1.098,7.229c0,2.684,0.366,5.089,1.098,7.213c0.732,2.125,1.774,3.925,3.126,5.398
		c1.352,1.475,2.983,2.604,4.895,3.386c1.911,0.783,4.036,1.175,6.375,1.175c2.358,0,4.494-0.392,6.405-1.175
		c1.911-0.782,3.538-1.911,4.88-3.386c1.342-1.474,2.379-3.273,3.111-5.398C280.951,95.211,281.317,92.806,281.317,90.122z"/>
	<path fill="#231F20" d="M312.702,107.263c1.809,0,3.426-0.305,4.849-0.915c1.423-0.609,2.628-1.464,3.614-2.562
		c0.986-1.099,1.739-2.41,2.257-3.935c0.518-1.525,0.777-3.202,0.777-5.032V68.253h5.887v26.566c0,2.521-0.402,4.859-1.205,7.015
		c-0.804,2.155-1.952,4.021-3.447,5.597c-1.495,1.576-3.32,2.812-5.475,3.706c-2.156,0.895-4.575,1.342-7.259,1.342
		c-2.684,0-5.104-0.447-7.259-1.342s-3.985-2.13-5.49-3.706c-1.505-1.575-2.659-3.441-3.462-5.597
		c-0.804-2.155-1.205-4.493-1.205-7.015V68.253h5.886v26.535c0,1.83,0.259,3.508,0.778,5.033c0.519,1.524,1.271,2.836,2.257,3.935
		c0.986,1.098,2.196,1.957,3.629,2.577C309.27,106.953,310.892,107.263,312.702,107.263z"/>
	<path fill="#231F20" d="M376.202,90.945v16.775c-2.196,1.586-4.54,2.771-7.03,3.553c-2.491,0.783-5.222,1.175-8.189,1.175
		c-3.519,0-6.69-0.544-9.517-1.632s-5.241-2.612-7.243-4.575c-2.003-1.962-3.544-4.315-4.621-7.061
		c-1.078-2.745-1.616-5.765-1.616-9.059c0-3.334,0.523-6.375,1.57-9.12s2.536-5.098,4.469-7.061c1.932-1.962,4.279-3.482,7.045-4.56
		c2.766-1.077,5.856-1.616,9.272-1.616c1.728,0,3.334,0.127,4.819,0.381c1.483,0.255,2.856,0.621,4.117,1.098
		c1.261,0.478,2.43,1.058,3.508,1.739c1.077,0.681,2.084,1.449,3.019,2.303l-1.677,2.684c-0.265,0.407-0.605,0.667-1.022,0.778
		c-0.417,0.112-0.879,0.016-1.388-0.29c-0.487-0.285-1.047-0.63-1.677-1.037c-0.631-0.406-1.398-0.798-2.303-1.174
		c-0.905-0.376-1.973-0.696-3.203-0.96s-2.689-0.396-4.377-0.396c-2.46,0-4.687,0.401-6.679,1.205
		c-1.993,0.803-3.69,1.952-5.094,3.446c-1.403,1.495-2.481,3.305-3.233,5.429c-0.752,2.125-1.128,4.509-1.128,7.152
		c0,2.745,0.391,5.2,1.174,7.365c0.782,2.166,1.901,4.007,3.355,5.521c1.453,1.516,3.218,2.669,5.291,3.462
		c2.074,0.793,4.402,1.189,6.985,1.189c2.032,0,3.837-0.229,5.413-0.686c1.576-0.458,3.116-1.093,4.621-1.906v-9.608h-6.802
		c-0.387,0-0.696-0.111-0.93-0.335c-0.234-0.224-0.352-0.498-0.352-0.823v-3.355H376.202z"/>
	<path fill="#231F20" d="M420.671,68.253v43.707h-5.917V92.074h-23.577v19.886h-5.917V68.253h5.917v19.49h23.577v-19.49H420.671z"/>
	<path fill="#231F20" d="M461.388,73.225h-14.151v38.735h-5.887V73.225h-14.183v-4.972h34.221V73.225z"/>
</g>
<g>
	<defs>
		<rect id="SVGID_1_" width="670" height="180"/>
	</defs>
	<clipPath id="SVGID_2_">
		<use xlink:href="#SVGID_1_"  overflow="visible"/>
	</clipPath>
	<g clip-path="url(#SVGID_2_)">
		<path fill="#6D6E70" d="M488.96,75.085c-0.184,0.305-0.382,0.534-0.596,0.686c-0.213,0.153-0.473,0.229-0.777,0.229
			c-0.346,0-0.752-0.172-1.22-0.519c-0.468-0.346-1.053-0.727-1.754-1.144c-0.701-0.417-1.546-0.798-2.531-1.144
			c-0.986-0.345-2.181-0.519-3.584-0.519c-1.322,0-2.485,0.178-3.492,0.534c-1.007,0.356-1.851,0.839-2.531,1.449
			c-0.682,0.61-1.195,1.327-1.541,2.15c-0.346,0.824-0.519,1.713-0.519,2.669c0,1.22,0.3,2.231,0.9,3.035
			c0.6,0.804,1.393,1.49,2.379,2.059c0.986,0.57,2.104,1.063,3.354,1.479c1.251,0.417,2.532,0.849,3.844,1.296
			s2.592,0.951,3.843,1.51c1.25,0.559,2.368,1.266,3.354,2.119c0.986,0.854,1.779,1.902,2.379,3.142c0.6,1.241,0.9,2.766,0.9,4.575
			c0,1.911-0.325,3.706-0.977,5.384c-0.65,1.677-1.601,3.137-2.852,4.376c-1.25,1.241-2.786,2.217-4.605,2.929
			c-1.819,0.711-3.889,1.067-6.207,1.067c-2.847,0-5.429-0.514-7.746-1.541c-2.318-1.026-4.301-2.414-5.948-4.163l1.708-2.806
			c0.163-0.224,0.361-0.412,0.595-0.564s0.493-0.229,0.778-0.229c0.264,0,0.564,0.106,0.899,0.32
			c0.336,0.214,0.717,0.483,1.144,0.809c0.428,0.325,0.915,0.681,1.464,1.067c0.55,0.386,1.175,0.742,1.876,1.067
			c0.702,0.325,1.499,0.595,2.395,0.808c0.895,0.214,1.901,0.32,3.02,0.32c1.403,0,2.653-0.192,3.751-0.579
			c1.099-0.386,2.028-0.931,2.791-1.632s1.347-1.54,1.754-2.517c0.406-0.976,0.61-2.063,0.61-3.263c0-1.322-0.301-2.404-0.9-3.249
			c-0.6-0.843-1.388-1.55-2.363-2.119c-0.977-0.569-2.095-1.053-3.355-1.449s-2.542-0.803-3.843-1.22
			c-1.302-0.417-2.582-0.899-3.843-1.449c-1.261-0.549-2.379-1.26-3.355-2.135c-0.976-0.874-1.764-1.967-2.363-3.279
			c-0.601-1.311-0.9-2.933-0.9-4.865c0-1.545,0.3-3.039,0.9-4.483c0.6-1.443,1.474-2.725,2.623-3.843
			c1.148-1.118,2.562-2.013,4.239-2.684s3.604-1.006,5.779-1.006c2.44,0,4.662,0.386,6.665,1.159
			c2.002,0.773,3.767,1.891,5.291,3.355L488.96,75.085z"/>
		<path fill="#6D6E70" d="M529.249,73.225h-14.151v38.735h-5.887V73.225h-14.183v-4.972h34.221V73.225z"/>
		<path fill="#6D6E70" d="M573.17,90.122c0,3.273-0.519,6.278-1.556,9.013c-1.037,2.735-2.501,5.089-4.393,7.061
			c-1.891,1.973-4.163,3.503-6.816,4.591s-5.587,1.631-8.799,1.631c-3.213,0-6.142-0.543-8.784-1.631
			c-2.644-1.088-4.911-2.618-6.802-4.591c-1.891-1.972-3.354-4.325-4.392-7.061c-1.037-2.734-1.556-5.739-1.556-9.013
			s0.519-6.278,1.556-9.013s2.501-5.094,4.392-7.076s4.158-3.523,6.802-4.621c2.643-1.098,5.571-1.647,8.784-1.647
			c3.212,0,6.146,0.549,8.799,1.647c2.653,1.098,4.926,2.638,6.816,4.621c1.892,1.982,3.355,4.341,4.393,7.076
			S573.17,86.849,573.17,90.122z M567.1,90.122c0-2.684-0.365-5.094-1.098-7.229c-0.731-2.135-1.769-3.939-3.111-5.414
			c-1.342-1.474-2.969-2.607-4.88-3.4s-4.046-1.189-6.404-1.189c-2.339,0-4.464,0.396-6.375,1.189s-3.543,1.927-4.896,3.4
			c-1.353,1.475-2.394,3.279-3.126,5.414c-0.731,2.135-1.098,4.544-1.098,7.229c0,2.684,0.366,5.089,1.098,7.213
			c0.732,2.125,1.773,3.925,3.126,5.398c1.353,1.475,2.984,2.604,4.896,3.386c1.911,0.783,4.036,1.175,6.375,1.175
			c2.358,0,4.493-0.392,6.404-1.175c1.911-0.782,3.538-1.911,4.88-3.386c1.343-1.474,2.38-3.273,3.111-5.398
			C566.734,95.211,567.1,92.806,567.1,90.122z"/>
		<path fill="#6D6E70" d="M613.917,111.96h-5.246c-1.078,0-1.871-0.417-2.379-1.251l-11.346-15.615
			c-0.346-0.488-0.717-0.839-1.113-1.053c-0.396-0.213-1.012-0.32-1.846-0.32h-4.483v18.239h-5.887V68.253h12.353
			c2.766,0,5.155,0.28,7.168,0.839c2.013,0.56,3.675,1.368,4.986,2.425s2.282,2.333,2.913,3.828c0.63,1.495,0.945,3.167,0.945,5.017
			c0,1.545-0.244,2.989-0.731,4.331c-0.488,1.342-1.195,2.547-2.12,3.614c-0.926,1.067-2.054,1.978-3.386,2.73
			s-2.842,1.322-4.529,1.708c0.752,0.427,1.403,1.047,1.952,1.86L613.917,111.96z M593.727,89.42c1.708,0,3.218-0.208,4.529-0.625
			c1.311-0.417,2.409-1.007,3.294-1.769c0.884-0.763,1.55-1.672,1.997-2.73c0.447-1.057,0.671-2.227,0.671-3.507
			c0-2.603-0.854-4.564-2.562-5.887c-1.708-1.321-4.271-1.982-7.687-1.982h-6.466v16.5H593.727z"/>
		<path fill="#6D6E70" d="M665.309,68.253v43.707h-5.185V79.843c0-0.427,0.016-0.884,0.046-1.372
			c0.03-0.488,0.065-0.986,0.106-1.495l-15.006,27.328c-0.468,0.915-1.18,1.372-2.135,1.372h-0.854
			c-0.956,0-1.667-0.457-2.135-1.372l-15.311-27.45c0.121,1.078,0.183,2.074,0.183,2.989v32.117h-5.186V68.253h4.362
			c0.528,0,0.935,0.051,1.22,0.152c0.284,0.102,0.559,0.387,0.823,0.854l15.098,26.901c0.244,0.488,0.482,0.996,0.717,1.524
			c0.233,0.529,0.452,1.068,0.655,1.617c0.203-0.549,0.417-1.093,0.641-1.632s0.468-1.053,0.732-1.54l14.823-26.871
			c0.244-0.467,0.513-0.752,0.808-0.854c0.295-0.101,0.707-0.152,1.235-0.152H665.309z"/>
	</g>
	<path clip-path="url(#SVGID_2_)" fill="#231F20" d="M83.087,68.375c0,0,15.73-15.563,55.057-5.02l-2.176,12.216
		c0,0,12.049,15.563,12.049,17.404C148.018,92.975,119.568,55.657,83.087,68.375"/>
	<path clip-path="url(#SVGID_2_)" fill="#2F5F96" d="M92.459,72.224c0,0,27.779-9.037,60.746,37.485l-14.057-5.522v9.706
		C139.148,113.893,125.593,74.902,92.459,72.224"/>
	<path clip-path="url(#SVGID_2_)" fill="#9D0B0F" d="M98.985,80.089c0,0,20.751,2.343,33.302,35.979l-5.188-2.176l-2.845,7.698
		C124.254,121.591,122.916,93.979,98.985,80.089"/>
	<path clip-path="url(#SVGID_2_)" fill="#231F20" d="M100.659,89.962c0,0,18.91,8.367,18.073,45.183h-9.023l-12.564,16.901
		C97.145,152.047,120.908,115.566,100.659,89.962"/>
	<path clip-path="url(#SVGID_2_)" fill="#2F5F96" d="M98.985,98.999c0,0,18.743,21.253-22.424,69.95l-5.188-13.388l-17.906,4.519
		C53.467,160.08,107.521,137.154,98.985,98.999"/>
	<path clip-path="url(#SVGID_2_)" fill="#9D0B0F" d="M92.459,107.868c0,0,7.363,21.42-41.334,46.689l7.363-9.873l-7.363-2.009
		C51.125,142.676,90.953,130.125,92.459,107.868"/>
	<path clip-path="url(#SVGID_2_)" fill="#231F20" d="M84.761,110.546c0,0-1.339,17.906-38.489,27.277l0.836-7.53L36.9,126.108
		C36.9,126.108,71.875,131.129,84.761,110.546"/>
	<path clip-path="url(#SVGID_2_)" fill="#2F5F96" d="M74.553,110.546c0,0-9.706,19.245-54.889,5.354l1.673-12.216L8.452,85.444
		C8.452,85.444,42.751,126.784,74.553,110.546"/>
	<path clip-path="url(#SVGID_2_)" fill="#9D0B0F" d="M65.349,107.199c0,0-24.098,12.384-61.918-37.653l14.225,4.853l0.669-9.538
		C18.325,64.861,34.557,106.864,65.349,107.199"/>
	<path clip-path="url(#SVGID_2_)" fill="#2F5F96" d="M58.655,98.999c0,0-16.735,3.347-33.971-35.645l6.192,1.507l2.343-6.694
		C33.219,58.167,36.733,86.783,58.655,98.999"/>
	<path clip-path="url(#SVGID_2_)" fill="#9D0B0F" d="M56.313,89.962c0,0-19.245-11.714-17.404-44.514l9.873-1.841L61.5,27.375
		C61.5,27.375,38.239,62.183,56.313,89.962"/>
	<path clip-path="url(#SVGID_2_)" fill="#231F20" d="M58.655,80.089c0,0-17.739-21.922,22.592-68.612l4.685,12.719l18.743-4.686
		C104.675,19.51,49.953,45.114,58.655,80.089"/>
	<path clip-path="url(#SVGID_2_)" fill="#2F5F96" d="M65.349,71.516c0,0-2.678-26.068,40.665-45.145l-6.025,8.2l6.694,2.343
		C106.683,36.914,68.361,48.384,65.349,71.516"/>
	<path clip-path="url(#SVGID_2_)" fill="#9D0B0F" d="M72.879,68.877c0,0,3.682-19.412,38.322-25.939l-0.669,6.006l10.71,4.705
		C121.243,53.649,91.79,47.624,72.879,68.877"/>
</g>
</svg>
