<svg height="48" viewBox="0 0 64 64" width="48" xmlns="http://www.w3.org/2000/svg"><path d="m58 22.5h-17v-11a4.00427 4.00427 0 0 0 -4-4h-31a4.00427 4.00427 0 0 0 -4 4v26a4.00427 4.00427 0 0 0 4 4h16v11a4.00427 4.00427 0 0 0 4 4h32a4.00427 4.00427 0 0 0 4-4v-26a4.00427 4.00427 0 0 0 -4-4zm-7.00024 11.35529-5.99976 3.82244v-7.11873a8.99124 8.99124 0 0 1 5.99976 3.29629zm-7.48076 6.52171a1.002 1.002 0 0 0 1.01807-.0332l7.53455-4.79962a8.99279 8.99279 0 1 1 -16.84162 5.95582h1.77a4.00427 4.00427 0 0 0 4-4v-6.473a8.77374 8.77374 0 0 1 2-.469v8.942a.99993.99993 0 0 0 .519.877zm-37.519-30.877h31a2.00229 2.00229 0 0 1 2 2v15.90283c-1.95388-3.681-2.26658-13.8152-6.4027-13.90292-2.63392.00009-3.62416 4.01279-4.672 8.26083-.62208 2.52051-1.66309 6.73926-2.73048 6.73926-1.16259 0-1.83886-1.12109-2.81445-2.9668-.999-1.89062-2.13086-4.0332-4.583-4.0332-2.45263 0-3.585 2.14258-4.58447 4.0332-.9756 1.84571-1.65235 2.9668-2.81544 2.9668-1.15283 0-2.00732-2.30957-2.76074-4.34668-.88123-2.38293-1.79132-4.82977-3.63672-5.48083v-7.17249a2.00229 2.00229 0 0 1 2-2zm-2 28v-16.38049c2.02944 2.52869 2.52055 9.41549 6.39747 9.38049 2.45214 0 3.58446-2.14257 4.584-4.03222 1.85-3.95586 3.78067-3.95588 5.63035-.00087.999 1.89052 2.13088 4.0331 4.583 4.0331 2.63379 0 3.624-4.0127 4.67188-8.26074 2.1257-8.91018 3.332-8.92841 5.46142.001.903 3.65978 1.76587 7.13878 3.67188 8.03276v7.22697a2.00229 2.00229 0 0 1 -2 2h-31a2.00229 2.00229 0 0 1 -2-2zm56 15a2.00229 2.00229 0 0 1 -2 2h-32a2.00229 2.00229 0 0 1 -2-2v-11h9.18683c2.71538 13.04116 21.45136 11.35919 21.81317-2.00012a11.04912 11.04912 0 0 0 -14-10.57013v-4.42975h17a2.00229 2.00229 0 0 1 2 2z"/><path d="m44 10.5h12a1.00011 1.00011 0 0 0 0-2h-12a1.00011 1.00011 0 0 0 0 2z"/><path d="m44 15.5h16a1.00011 1.00011 0 0 0 0-2h-16a1.00011 1.00011 0 0 0 0 2z"/><path d="m44 20.5h10a1.00011 1.00011 0 0 0 0-2h-10a1.00011 1.00011 0 0 0 0 2z"/><path d="m19 43.5h-12a1.00011 1.00011 0 0 0 0 2h12a1.00011 1.00011 0 0 0 0-2z"/><path d="m19 48.5h-16a1.00011 1.00011 0 0 0 0 2h16a1.00011 1.00011 0 0 0 0-2z"/><path d="m19 53.5h-10a1.00011 1.00011 0 0 0 0 2h10a1.00011 1.00011 0 0 0 0-2z"/></svg>