<svg height="80" viewBox="0 0 60 58" width="80" xmlns="http://www.w3.org/2000/svg"><g id="031---UX-Vs-UI"><path id="Path" d="m51.813 1.582c.2180882-.30471969.2475146-.70579418.0762362-1.03908124-.1712784-.33328706-.5145142-.54284802-.8892362-.54291876h-2.643c-.3213843.0003554-.6227653.15607516-.809.418l-5.239 7.365c-.1860297.26214906-.4875515.4179068-.809.4179068s-.6229703-.15575774-.809-.4179068l-5.239-7.365c-.1862347-.26192484-.4876157-.4176446-.809-.418h-2.643c-.3740025.00156429-.7158712.2117001-.8861558.5446918-.1702847.3329917-.1405188.73317323.0771558 1.0373082l.927 1.3 2.052 2.884 4.374 6.149c.2490816.3480247.2490816.8159753 0 1.164l-7.357 10.339c-.2180882.3047197-.2475146.7057942-.0762362 1.0390812.1712784.3332871.5145142.5428481.8892362.5429188h2.647c.3213843-.0003554.6227653-.1560752.809-.418l5.239-7.365c.1857568-.2625556.4873775-.4186365.809-.4186365s.6232432.1560809.809.4186365l5.239 7.365c.1862347.2619248.4876157.4176446.809.418h2.639c.3740025-.0015643.7158712-.2117001.8861558-.5446918.1702847-.3329917.1405188-.7331732-.0771558-1.0373082l-7.349-10.336c-.2490816-.3480247-.2490816-.8159753 0-1.164z"/><path id="Path" d="m12 0h-3c-.55228475 0-1 .44771525-1 1v15c-.00000616 2.4911613 1.0325365 4.8708959 2.8518214 6.5726854 1.8192849 1.7017894 4.2625593 2.573392 6.7481786 2.4073146 4.800622-.4185932 8.4648322-4.470599 8.4-9.289v-14.691c0-.55228475-.4477153-1-1-1h-3c-.5522847 0-1 .44771525-1 1v15c.000044 1.1289155-.476954 2.2052857-1.3133086 2.9635475-.8363547.7582619-1.9541823 1.127804-3.0776914 1.0174525-2.0869044-.2582937-3.6433201-2.0484521-3.609-4.151v-14.83c0-.55228475-.4477153-1-1-1z"/><path id="Path" d="m25 33h-3c-.5522847 0-1 .4477153-1 1v15c.000044 1.1289155-.476954 2.2052857-1.3133086 2.9635475-.8363547.7582619-1.9541823 1.127804-3.0776914 1.0174525-2.0869044-.2582937-3.6433201-2.0484521-3.609-4.151v-14.83c0-.5522847-.4477153-1-1-1h-3c-.55228475 0-1 .4477153-1 1v15c-.00000616 2.4911613 1.0325365 4.8708959 2.8518214 6.5726854 1.8192849 1.7017894 4.2625593 2.573392 6.7481786 2.4073146 4.800622-.4185932 8.4648322-4.470599 8.4-9.289v-14.691c0-.5522847-.4477153-1-1-1z"/><path id="Path" d="m51 33h-18c-.5522847 0-1 .4477153-1 1v3c0 .5522847.4477153 1 1 1h6c.5522847 0 1 .4477153 1 1v13c0 .5522847-.4477153 1-1 1h-6c-.5522847 0-1 .4477153-1 1v3c0 .5522847.4477153 1 1 1h18c.5522847 0 1-.4477153 1-1v-3c0-.5522847-.4477153-1-1-1h-6c-.5522847 0-1-.4477153-1-1v-13c0-.5522847.4477153-1 1-1h6c.5522847 0 1-.4477153 1-1v-3c0-.5522847-.4477153-1-1-1z"/><path id="Path" d="m59 28h-58c-.55228475 0-1 .4477153-1 1s.44771525 1 1 1h58c.5522847 0 1-.4477153 1-1s-.4477153-1-1-1z"/></g></svg>