<?xml version="1.0" encoding="UTF-8"?>
<svg fill="#00a2a0" width="500px" height="500px" viewBox="0 0 1300 1300" version="1.1" xmlns="http://www.w3.org/2000/svg" xmlns:xlink="http://www.w3.org/1999/xlink">
    <title>Artboard</title>
    <g id="Artboard" stroke="none" stroke-width="1" fill="none" fill-rule="evenodd">
        <path d="M-122.320068,-365.171082 C-225.117269,-118.37913 -86.9473877,149.203532 292.189575,437.576904 C671.326538,725.950277 734.038737,1049.88916 480.326172,1409.39355" id="Path" stroke="#00a2a0"></path>
        <path d="M33.6799316,-365.171082 C-69.1172689,-118.37913 69.0526123,149.203532 448.189575,437.576904 C827.326538,725.950277 890.038737,1049.88916 636.326172,1409.39355" id="Path" stroke="#00a2a0"></path>
        <path d="M178.679932,-367.171082 C75.8827311,-120.37913 214.052612,147.203532 593.189575,435.576904 C972.326538,723.950277 1035.03874,1047.88916 781.326172,1407.39355" id="Path" stroke="#00a2a0"></path>
        <path d="M327.679932,-367.171082 C224.882731,-120.37913 363.052612,147.203532 742.189575,435.576904 C1121.32654,723.950277 1184.03874,1047.88916 930.326172,1407.39355" id="Path" stroke="#00a2a0"></path>
        <path d="M478.679932,-367.171082 C375.882731,-120.37913 514.052612,147.203532 893.189575,435.576904 C1272.32654,723.950277 1335.03874,1047.88916 1081.32617,1407.39355" id="Path" stroke="#00a2a0"></path>
        <path d="M618.679932,-367.171082 C515.882731,-120.37913 654.052612,147.203532 1033.18958,435.576904 C1412.32654,723.950277 1475.03874,1047.88916 1221.32617,1407.39355" id="Path" stroke="#00a2a0"></path>
        <path d="M758.679932,-367.171082 C655.882731,-120.37913 794.052612,147.203532 1173.18958,435.576904 C1552.32654,723.950277 1615.03874,1047.88916 1361.32617,1407.39355" id="Path" stroke="#00a2a0"></path>
        <path d="M888.679932,-367.171082 C785.882731,-120.37913 924.052612,147.203532 1303.18958,435.576904 C1682.32654,723.950277 1745.03874,1047.88916 1491.32617,1407.39355" id="Path" stroke="#00a2a0"></path>
        <path d="M1038.67993,-367.171082 C935.882731,-120.37913 1074.05261,147.203532 1453.18958,435.576904 C1832.32654,723.950277 1895.03874,1047.88916 1641.32617,1407.39355" id="Path" stroke="#00a2a0"></path>
        <path d="M1168.67993,-367.171082 C1065.88273,-120.37913 1204.05261,147.203532 1583.18958,435.576904 C1962.32654,723.950277 2025.03874,1047.88916 1771.32617,1407.39355" id="Path" stroke="#00a2a0"></path>
        <path d="M1298.67993,-367.171082 C1195.88273,-120.37913 1334.05261,147.203532 1713.18958,435.576904 C2092.32654,723.950277 2155.03874,1047.88916 1901.32617,1407.39355" id="Path" stroke="#00a2a0"></path>
        <path d="M-269.10983,-368 C-371.90703,-121.208049 -233.737149,146.374613 145.399814,434.747986 C524.536777,723.121358 587.248976,1047.06024 333.53641,1406.56464" id="Path" stroke="#00a2a0"></path>
        <path d="M-409.10983,-368 C-511.90703,-121.208049 -373.737149,146.374613 5.39981374,434.747986 C384.536777,723.121358 447.248976,1047.06024 193.53641,1406.56464" id="Path" stroke="#00a2a0"></path>
        <path d="M-543.10983,-368 C-645.90703,-121.208049 -507.737149,146.374613 -128.600186,434.747986 C250.536777,723.121358 313.248976,1047.06024 59.5364104,1406.56464" id="Path" stroke="#00a2a0"></path>
        <path d="M-684.10983,-368 C-786.90703,-121.208049 -648.737149,146.374613 -269.600186,434.747986 C109.536777,723.121358 172.248976,1047.06024 -81.4635896,1406.56464" id="Path" stroke="#00a2a0"></path>
    </g>
</svg>