<svg id="Capa_1" enable-background="new 0 0 512 512" height="80" viewBox="0 0 512 512" width="80" xmlns="http://www.w3.org/2000/svg"><g><path d="m83.617 26.753c-4.143 0-7.5 3.357-7.5 7.5s3.357 7.5 7.5 7.5h5.001c4.143 0 7.5-3.357 7.5-7.5s-3.357-7.5-7.5-7.5z"/><path d="m108.177 34.253c0 4.143 3.357 7.5 7.5 7.5h5c4.143 0 7.5-3.357 7.5-7.5s-3.357-7.5-7.5-7.5h-5c-4.142 0-7.5 3.357-7.5 7.5z"/><path d="m152.737 41.753c4.143 0 7.5-3.357 7.5-7.5s-3.357-7.5-7.5-7.5h-5c-4.143 0-7.5 3.357-7.5 7.5s3.357 7.5 7.5 7.5z"/><path d="m108.658 439.676c-4.143 0-7.5 3.357-7.5 7.5s3.357 7.5 7.5 7.5h32.271c4.143 0 7.5-3.357 7.5-7.5s-3.357-7.5-7.5-7.5z"/><path d="m174.261 439.676c-4.143 0-7.5 3.357-7.5 7.5s3.357 7.5 7.5 7.5h32.271c4.143 0 7.5-3.357 7.5-7.5s-3.357-7.5-7.5-7.5z"/><path d="m239.865 454.676h32.271c4.143 0 7.5-3.357 7.5-7.5s-3.357-7.5-7.5-7.5h-32.271c-4.143 0-7.5 3.357-7.5 7.5s3.357 7.5 7.5 7.5z"/><path d="m305.468 454.676h32.271c4.143 0 7.5-3.357 7.5-7.5s-3.357-7.5-7.5-7.5h-32.271c-4.143 0-7.5 3.357-7.5 7.5s3.358 7.5 7.5 7.5z"/><path d="m371.072 439.676c-4.143 0-7.5 3.357-7.5 7.5s3.357 7.5 7.5 7.5h32.271c4.143 0 7.5-3.357 7.5-7.5s-3.357-7.5-7.5-7.5z"/><path d="m446.201 0h-310.404c-4.143 0-7.5 3.357-7.5 7.5s3.357 7.5 7.5 7.5h310.403c1.246 0 2.26 1.015 2.26 2.261v36.244h-384.92v-36.244c0-1.246 1.014-2.261 2.26-2.261h40.012c4.143 0 7.5-3.357 7.5-7.5s-3.357-7.5-7.5-7.5h-40.013c-9.517 0-17.26 7.743-17.26 17.261v479.356c0 8.482 6.9 15.383 15.383 15.383h213.41c4.143 0 7.5-3.357 7.5-7.5s-3.357-7.5-7.5-7.5h-213.41c-.211 0-.383-.172-.383-.383v-428.112h384.921v428.112c0 .211-.172.383-.384.383h-140.756c-4.143 0-7.5 3.357-7.5 7.5s3.357 7.5 7.5 7.5h140.757c8.482 0 15.384-6.9 15.384-15.383v-479.356c-.001-9.518-7.744-17.261-17.26-17.261z"/><path d="m410.842 105.962c0-9.891-8.113-18.016-18.017-18.016h-273.652c-9.953 0-18.016 8.177-18.016 18.016v71.96c0 9.867 8.08 18.016 18.016 18.016h273.652c9.908 0 18.017-8.074 18.017-18.016zm-294.684 2.623 111.929 33.357-111.929 33.357zm33.597-5.639h209.182l-104.591 31.17zm104.591 46.822 104.591 31.17h-209.182zm26.259-7.826 115.237-34.343v68.685z"/><path d="m247.365 388.782v-154.567c0-6.9-5.618-12.656-12.656-12.656h-120.896c-7.032 0-12.655 5.765-12.655 12.656v154.567c0 6.91 5.637 12.656 12.655 12.656h120.896c6.982 0 12.656-5.71 12.656-12.656zm-131.207-138.467 48.703 61.401-48.703 61.052zm8.235-13.756h100.424l-50.355 63.123zm50.034 87.218 49.701 62.661h-99.688zm9.601-12.034 48.337-60.593v121.534z"/><path d="m407.704 388.782v-154.568c0-6.924-5.641-12.655-12.655-12.655h-45.264c-4.143 0-7.5 3.357-7.5 7.5s3.357 7.5 7.5 7.5h35.371l-50.355 63.123-50.068-63.123h35.065c4.143 0 7.5-3.357 7.5-7.5s-3.357-7.5-7.5-7.5h-45.645c-6.978 0-12.656 5.702-12.656 12.655v154.568c0 6.912 5.637 12.656 12.656 12.656h120.896c7.031 0 12.655-5.765 12.655-12.656zm-15-137.632v121.532l-48.336-60.939zm-8.235 135.288h-99.688l49.986-62.661zm-107.972-13.668v-122.457l48.704 61.403z"/></g></svg>